<svg width="800" height="400" xmlns="http://www.w3.org/2000/svg">
    <rect width="800" height="400" fill="#f9fafb"/>
    <rect x="20" y="20" width="760" height="360" fill="white" stroke="#e5e7eb" stroke-width="1" rx="8"/>
    <g transform="translate(50, 80)">
        <rect x="0" y="0" width="280" height="140" fill="white" stroke="#22c55e" stroke-width="2" rx="8"/>
        <text x="140" y="30" text-anchor="middle" font-size="14" font-weight="bold" fill="#1f2937">Proportional Table</text>
        <line x1="40" y1="65" x2="240" y2="65" stroke="#374151" stroke-width="1"/>
        <line x1="40" y1="65" x2="40" y2="120" stroke="#374151" stroke-width="1"/>
        <line x1="140" y1="65" x2="140" y2="120" stroke="#374151" stroke-width="1"/>
        <line x1="240" y1="65" x2="240" y2="120" stroke="#374151" stroke-width="1"/>
        <text x="140" y="90" text-anchor="middle" font-size="12" fill="#1f2937">1 → 2</text>
        <text x="140" y="105" text-anchor="middle" font-size="12" fill="#1f2937">2 → 4</text>
    </g>
    <g transform="translate(380, 80)">
        <rect x="0" y="0" width="280" height="180" fill="white" stroke="#fecaca" stroke-width="2" rx="8"/>
        <text x="140" y="30" text-anchor="middle" font-size="14" font-weight="bold" fill="#dc2626">Non-Proportional Table</text>
        <text x="140" y="55" text-anchor="middle" font-size="11" fill="#6b7280">x: y = 2x + 1</text>
        <line x1="40" y1="100" x2="240" y2="100" stroke="#374151" stroke-width="1"/>
        <line x1="40" y1="100" x2="40" y2="170" stroke="#374151" stroke-width="1"/>
        <line x1="140" y1="100" x2="140" y2="170" stroke="#374151" stroke-width="1"/>
        <line x1="240" y1="100" x2="240" y2="170" stroke="#374151" stroke-width="1"/>
        <text x="140" y="135" text-anchor="middle" font-size="12" fill="#1f2937">2 → 5</text>
        <text x="140" y="155" text-anchor="middle" font-size="12" fill="#dc2626">y ≠ k×</text>
    </g>
</svg>