<svg width="800" height="400" xmlns="http://www.w3.org/2000/svg">
    <rect width="800" height="400" fill="#f9fafb"/>
    <rect x="20" y="20" width="760" height="360" fill="white" stroke="#e5e7eb" stroke-width="1" rx="8"/>
    <g transform="translate(50, 80)">
        <rect x="0" y="0" width="320" height="180" fill="white" stroke="#22c55e" stroke-width="2" rx="8"/>
        <text x="160" y="30" text-anchor="middle" font-size="14" font-weight="bold" fill="#1f2937">Proportional Graph (y = 2x)</text>
        <line x1="60" y1="35" x2="60" y2="150" stroke="#374151" stroke-width="1.5"/>
        <line x1="60" y1="150" x2="290" y2="150" stroke="#374151" stroke-width="1.5"/>
        <line x1="60" y1="150" x2="130" y2="110" stroke="#22c55e" stroke-width="2.5"/>
        <circle cx="60" cy="150" r="4" fill="#1f2937"/>
        <circle cx="130" cy="110" r="4" fill="#1f2937"/>
        <text x="200" y="100" font-size="14" fill="#22c55e" font-weight="bold">y = 2x</text>
        <text x="160" y="170" text-anchor="middle" font-size="11" fill="#6b7280">Passes through (0,0)</text>
    </g>
    <g transform="translate(430, 80)">
        <rect x="0" y="0" width="280" height="180" fill="white" stroke="#fecaca" stroke-width="2" rx="8"/>
        <text x="140" y="30" text-anchor="middle" font-size="14" font-weight="bold" fill="#dc2626">Non-Proportional Graph</text>
        <line x1="60" y1="35" x2="60" y2="150" stroke="#374151" stroke-width="1.5"/>
        <line x1="60" y1="150" x2="250" y2="150" stroke="#374151" stroke-width="1.5"/>
        <line x1="60" y1="150" x2="250" y2="100" stroke="#dc2626" stroke-width="2.5"/>
        <circle cx="60" cy="150" r="4" fill="#1f2937"/>
        <circle cx="250" cy="100" r="4" fill="#1f2937"/>
        <text x="160" y="170" text-anchor="middle" font-size="11" fill="#dc2626">Does not pass through (0,0)</text>
    </g>
</svg>