<svg width="800" height="400" xmlns="http://www.w3.org/2000/svg">
    <rect width="800" height="400" fill="#f9fafb"/>
    <rect x="20" y="20" width="760" height="360" fill="white" stroke="#e5e7eb" stroke-width="1" rx="8"/>
    <g transform="translate(50, 100)">
        <rect x="0" y="0" width="520" height="160" fill="#dcfce7" stroke="#059669" stroke-width="2" rx="6"/>
        <text x="260" y="40" text-anchor="middle" font-size="14" font-weight="bold" fill="#166534">Scale Factor = 2</text>
        <text x="260" y="70" text-anchor="middle" font-size="12" fill="#6b7280">All dimensions double</text>
        <line x1="100" y1="85" x2="420" y2="85" stroke="#374151" stroke-width="1"/>
        <g transform="translate(130, 100)">
            <rect x="0" y="0" width="60" height="40" fill="#d1fae5" stroke="#059669" stroke-width="1"/>
            <text x="30" y="26" text-anchor="middle" font-size="10" fill="#065f46">Original (1x)</text>
        </g>
        <text x="220" y="126" text-anchor="middle" font-size="10" fill="#6b7280">→ Scale Factor →</text>
        <g transform="translate(300, 100)">
            <rect x="0" y="0" width="60" height="40" fill="#d1fae5" stroke="#059669" stroke-width="2"/>
            <text x="30" y="26" text-anchor="middle" font-size="10" fill="#065f46">New (2x)</text>
        </g>
        <text x="260" y="155" text-anchor="middle" font-size="12" fill="#059669" font-weight="bold">Width × 2</text>
    </g>
    <g transform="translate(600, 100)">
        <rect x="0" y="0" width="140" height="160" fill="#f3f4f6" stroke="#374151" stroke-width="1" rx="6"/>
        <text x="70" y="30" text-anchor="middle" font-size="10" font-weight="bold" fill="#6b7280">In Proportions:</text>
        <text x="70" y="50" text-anchor="middle" font-size="9" fill="#6b7280">a/b = x/y (constant)</text>
        <text x="70" y="80" text-anchor="middle" font-size="9" fill="#6b7280">Speed = 2×</text>
        <text x="70" y="110" text-anchor="middle" font-size="9" fill="#6b7280">Time = original / 2</text>
        <text x="70" y="140" text-anchor="middle" font-size="9" fill="#6b7280">Distance = original × 2</text>
    </g>
</svg>