<svg width="800" height="400" xmlns="http://www.w3.org/2000/svg">
    <rect width="800" height="400" fill="#fffbeb"/>
    <rect x="20" y="20" width="760" height="360" fill="white" stroke="#fcd34d" stroke-width="1" rx="8"/>
    <text x="400" y="50" text-anchor="middle" font-size="16" font-weight="bold" fill="#92400e">Teaching How to Check Proportionality</text>
    <g transform="translate(80, 80)">
        <rect x="0" y="0" width="160" height="110" fill="#fef3c7" stroke="#f59e0b" stroke-width="1" rx="4"/>
        <text x="80" y="30" text-anchor="middle" font-size="11" font-weight="bold" fill="#9a3412">Step 1: Graph → Table</text>
        <text x="80" y="50" text-anchor="middle" font-size="9" fill="#6b7280">Plot 5+ grid points</text>
        <text x="80" y="65" text-anchor="middle" font-size="9" fill="#6b7280">From graph data</text>
        <text x="80" y="85" text-anchor="middle" font-size="9" fill="#6b7280">Calculate y/x ratios</text>
    </g>
    <g transform="translate(270, 80)">
        <rect x="0" y="0" width="160" height="110" fill="#fef3c7" stroke="#f59e0b" stroke-width="1" rx="4"/>
        <text x="80" y="30" text-anchor="middle" font-size="11" font-weight="bold" fill="#9a3412">Step 2: Check Ratios</text>
        <text x="80" y="50" text-anchor="middle" font-size="9" fill="#6b7280">y₁/x₁ ≈ y₂/x₂ ≈ ...</text>
        <text x="80" y="65" text-anchor="middle" font-size="9" fill="#6b7280">Same for all points</text>
        <text x="80" y="85" text-anchor="middle" font-size="9" fill="#6b7280">Constant ratio = k</text>
    </g>
    <g transform="translate(460, 80)">
        <rect x="0" y="0" width="160" height="110" fill="#fef3c7" stroke="#f59e0b" stroke-width="1" rx="4"/>
        <text x="80" y="30" text-anchor="middle" font-size="11" font-weight="bold" fill="#9a3412">Step 3: Context → Equation</text>
        <text x="80" y="50" text-anchor="middle" font-size="9" fill="#6b7280">Find unit rate</text>
        <text x="80" y="65" text-anchor="middle" font-size="9" fill="#6b7280">Rate = k</text>
        <text x="80" y="85" text-anchor="middle" font-size="9" fill="#6b7280">Write y = kx</text>
    </g>
    <g transform="translate(80, 210)">
        <rect x="0" y="0" width="540" height="110" fill="#fff" stroke="#f59e0b" stroke-width="2" rx="4"/>
        <text x="270" y="35" text-anchor="middle" font-size="12" font-weight="bold" fill="#9a3412">Red Flag Indicators</text>
        <text x="270" y="60" text-anchor="middle" font-size="10" fill="#6b7280">❌ Line doesn't pass through (0,0) → NOT proportional</text>
        <text x="270" y="80" text-anchor="middle" font-size="10" fill="#6b7280">❌ Y-intercept (b) ≠ 0 → NOT proportional</text>
        <text x="270" y="100" text-anchor="middle" font-size="10" fill="#6b7280">❌ Ratios change point to point → NOT proportional</text>
    </g>
</svg>